<?xml version="1.0" encoding="utf-8"?>
<!-- Generator: Adobe Illustrator 27.1.1, SVG Export Plug-In . SVG Version: 6.00 Build 0)  -->
<svg version="1.1" id="Ebene_1" xmlns="http://www.w3.org/2000/svg" xmlns:xlink="http://www.w3.org/1999/xlink" x="0px" y="0px"
	 viewBox="0 0 130 40" style="enable-background:new 0 0 130 40;" xml:space="preserve">
<style type="text/css">
	.st0{fill:#1F2326;}
	.st1{clip-path:url(#SVGID_00000149356038971939265150000006720213209871437954_);}
	.st2{fill:url(#SVGID_00000066483024862828853110000004835845505435024522_);}
	.st3{fill:url(#SVGID_00000067916414381163768870000013876590545367104148_);}
	.st4{fill:url(#SVGID_00000013191674984458171470000013425497475303795374_);}
	.st5{fill:#FFFFFF;}
	.st6{fill:#D81E84;}
</style>
<path class="st0" d="M52.4,7.1l-2.2,4L50,11.7l-0.3-0.6l-2.2-4h-2.4l3.8,6.6v3.8h2.2v-3.8l3.7-6.6H52.4z"/>
<path class="st0" d="M59.7,10.2c-0.6-0.4-1.3-0.5-2.1-0.5c-0.8,0-1.5,0.2-2.1,0.5c-0.6,0.4-1.1,0.8-1.5,1.4c-0.4,0.6-0.5,1.3-0.5,2
	c0,0.7,0.2,1.4,0.5,2c0.4,0.6,0.9,1.1,1.5,1.4c0.6,0.4,1.3,0.5,2.1,0.5c0.8,0,1.5-0.2,2.1-0.5c0.6-0.4,1.1-0.8,1.5-1.4
	c0.4-0.6,0.5-1.3,0.5-2s-0.2-1.4-0.5-2C60.8,11,60.3,10.6,59.7,10.2z M59.2,14.8c-0.2,0.3-0.4,0.6-0.6,0.7c-0.3,0.2-0.6,0.3-0.9,0.3
	c-0.4,0-0.7-0.1-1-0.3s-0.5-0.4-0.6-0.7c-0.2-0.3-0.2-0.7-0.2-1.1s0.1-0.8,0.2-1.1c0.2-0.3,0.4-0.6,0.6-0.7s0.6-0.3,1-0.3
	c0.4,0,0.7,0.1,0.9,0.3c0.3,0.2,0.5,0.4,0.6,0.7c0.2,0.3,0.2,0.7,0.2,1.1C59.5,14.1,59.4,14.4,59.2,14.8z"/>
<path class="st0" d="M67.7,14.2c0,0.3-0.1,0.6-0.2,0.8c-0.1,0.2-0.3,0.4-0.5,0.5c-0.2,0.1-0.5,0.2-0.8,0.2c-0.3,0-0.5-0.1-0.7-0.2
	c-0.2-0.1-0.4-0.3-0.5-0.5c-0.1-0.2-0.2-0.5-0.2-0.8V9.9h-2.2v4.8c0,0.6,0.1,1.2,0.3,1.6c0.2,0.4,0.6,0.8,1,1
	c0.4,0.2,0.9,0.4,1.4,0.4c0.6,0,1.1-0.1,1.5-0.4c0.3-0.2,0.6-0.5,0.8-0.8v1h2.1V9.9h-2.2V14.2z"/>
<path class="st0" d="M71,9.1h3.1v8.3h2.3V9.1h3.1V7.1H71V9.1z"/>
<path class="st0" d="M82.6,10.3c-0.2,0.2-0.5,0.4-0.6,0.7V9.9h-2.1v7.6H82v-4c0-0.3,0.1-0.6,0.2-0.8c0.1-0.2,0.3-0.4,0.6-0.5
	c0.3-0.1,0.6-0.2,0.9-0.2l0.6,0V9.8H84C83.5,9.8,83,10,82.6,10.3z"/>
<path class="st0" d="M90.7,10.9c-0.2-0.3-0.5-0.6-0.9-0.8c-0.5-0.3-1-0.4-1.6-0.4c-0.6,0-1.2,0.2-1.8,0.5c-0.5,0.3-0.9,0.8-1.2,1.4
	c-0.3,0.6-0.4,1.3-0.4,2c0,0.8,0.1,1.4,0.4,2c0.3,0.6,0.7,1.1,1.2,1.4c0.5,0.3,1.1,0.5,1.8,0.5c0.6,0,1.1-0.1,1.6-0.4
	c0.3-0.2,0.6-0.5,0.9-0.8v1h2.2V9.9h-2.2L90.7,10.9L90.7,10.9z M90.5,14.8c-0.2,0.3-0.4,0.6-0.6,0.7c-0.3,0.2-0.6,0.3-0.9,0.3
	c-0.4,0-0.7-0.1-1-0.3c-0.3-0.2-0.5-0.4-0.6-0.7c-0.2-0.3-0.2-0.7-0.2-1.1c0-0.4,0.1-0.8,0.2-1.1c0.2-0.3,0.4-0.6,0.6-0.7
	c0.3-0.2,0.6-0.3,1-0.3c0.4,0,0.7,0.1,0.9,0.3c0.3,0.2,0.5,0.4,0.6,0.7c0.2,0.3,0.2,0.7,0.2,1.1C90.7,14.1,90.6,14.4,90.5,14.8z"/>
<path class="st0" d="M97.2,11.9c0.3-0.2,0.6-0.3,0.9-0.3c0.2,0,0.5,0,0.7,0.1c0.2,0.1,0.4,0.2,0.6,0.4c0.2,0.2,0.3,0.4,0.4,0.6h2.2
	c-0.1-0.6-0.3-1.1-0.6-1.6c-0.4-0.5-0.8-0.8-1.4-1.1c-0.6-0.3-1.2-0.4-1.9-0.4c-0.8,0-1.4,0.2-2.1,0.5c-0.6,0.4-1.1,0.8-1.5,1.4
	c-0.4,0.6-0.5,1.3-0.5,2c0,0.7,0.2,1.4,0.5,2c0.4,0.6,0.8,1.1,1.5,1.4c0.6,0.4,1.3,0.5,2.1,0.5c0.7,0,1.3-0.1,1.8-0.4
	c0.6-0.3,1-0.6,1.4-1.1c0.4-0.5,0.6-1,0.6-1.6h-2.2c-0.1,0.2-0.2,0.4-0.4,0.6c-0.2,0.2-0.4,0.3-0.6,0.4c-0.2,0.1-0.5,0.1-0.7,0.1
	c-0.4,0-0.7-0.1-0.9-0.3c-0.3-0.2-0.5-0.4-0.7-0.7c-0.2-0.3-0.2-0.7-0.2-1.1c0-0.4,0.1-0.8,0.2-1.1C96.7,12.3,96.9,12.1,97.2,11.9z"
	/>
<path class="st0" d="M107.5,13.4l2.8-3.6h-2.4l-2.6,3.3V7.1h-2.2v10.4h2.2v-3.6l2.6,3.6h2.6L107.5,13.4z"/>
<g>
	<defs>
		<rect id="SVGID_1_" x="16" y="0.5" width="23.5" height="23.5"/>
	</defs>
	<clipPath id="SVGID_00000125580675809969679160000004019022423711950995_">
		<use xlink:href="#SVGID_1_"  style="overflow:visible;"/>
	</clipPath>
	<g style="clip-path:url(#SVGID_00000125580675809969679160000004019022423711950995_);">
		
			<linearGradient id="SVGID_00000167398587545807452420000002129614746353068190_" gradientUnits="userSpaceOnUse" x1="18.4021" y1="21.1518" x2="37.5663" y2="29.8868" gradientTransform="matrix(1 0 0 -1 0 40)">
			<stop  offset="0" style="stop-color:#905CFB"/>
			<stop  offset="0.165" style="stop-color:#6677F8"/>
			<stop  offset="0.378" style="stop-color:#3596F5"/>
			<stop  offset="0.54" style="stop-color:#17A9F3"/>
			<stop  offset="0.632" style="stop-color:#0CB0F2"/>
		</linearGradient>
		<path style="fill:url(#SVGID_00000167398587545807452420000002129614746353068190_);" d="M38.5,16.4c-0.1-0.1-4.4-4.2-4.4-4.2
			s3.3-3.5,4.2-4.4c0.2-0.2,0.5-0.5,0.7-0.9c1.2-2.1,0.5-4.7-1.5-5.9c-1.5-0.9-3.4-0.7-4.7,0.3c-0.2,0.2-0.4,0.3-0.6,0.5
			c-0.1,0.1-4.7,4.3-8.6,7.9l7.4,4.7L23,23.3c-0.5,0.3-0.9,0.5-1.4,0.6c0.1,0,0.4,0,0.5,0c1.5-0.2,14.5-2.5,15.2-2.6
			c0.8-0.1,1.5-0.6,1.9-1.3C39.9,18.8,39.6,17.3,38.5,16.4z"/>
		
			<linearGradient id="SVGID_00000122709303123218072280000014366899663715500181_" gradientUnits="userSpaceOnUse" x1="26.2095" y1="30.086" x2="16.3823" y2="38.7667" gradientTransform="matrix(1 0 0 -1 0 40)">
			<stop  offset="0" style="stop-color:#905CFB"/>
			<stop  offset="7.200000e-02" style="stop-color:#A554E6"/>
			<stop  offset="0.252" style="stop-color:#D641B5"/>
			<stop  offset="0.39" style="stop-color:#F43597"/>
			<stop  offset="0.468" style="stop-color:#FF318C"/>
		</linearGradient>
		<path style="fill:url(#SVGID_00000122709303123218072280000014366899663715500181_);" d="M31.5,10.7c-0.1-0.9-0.6-1.6-1.3-2.2
			C29.5,8,24,2.3,23.4,1.7c-0.9-0.9-2.3-1.4-3.7-1.2c-2.4,0.3-4,2.6-3.6,4.9c0.2,1.2,0.8,2.2,1.7,2.8c0.9,0.7,7.7,5.4,8.2,5.7
			c0.7,0.5,1.6,0.8,2.6,0.7C30.4,14.3,31.8,12.6,31.5,10.7z"/>
		
			<linearGradient id="SVGID_00000111162433129767824560000012790397739387856011_" gradientUnits="userSpaceOnUse" x1="17.7" y1="19.8213" x2="40.9024" y2="34.4409" gradientTransform="matrix(1 0 0 -1 0 40)">
			<stop  offset="0" style="stop-color:#905CFB"/>
			<stop  offset="0.165" style="stop-color:#6677F8"/>
			<stop  offset="0.378" style="stop-color:#3596F5"/>
			<stop  offset="0.54" style="stop-color:#17A9F3"/>
			<stop  offset="0.632" style="stop-color:#0CB0F2"/>
		</linearGradient>
		<path style="fill:url(#SVGID_00000111162433129767824560000012790397739387856011_);" d="M23.8,23.2c0,0,7.8-8.8,7.8-8.8l-7.9-5
			c-2.8,2.6-5.4,4.9-6,5.4c-0.4,0.3-0.7,0.8-1,1.2c-1.4,2.5-0.6,5.6,1.9,7.1C19.6,23.8,21.9,24.6,23.8,23.2z"/>
		<path d="M35.1,4.9H20.4v14.7h14.7V4.9z"/>
		<path class="st5" d="M27.8,17h-5.9v1.1h5.9V17z"/>
		<path class="st5" d="M24.2,12.2h1.2V9.9l2.1-3.6h-1.4l-1.3,2.4l-1.3-2.4h-1.4l2.1,3.6V12.2z"/>
		<path class="st5" d="M28.5,6.3v1.2h1.6v4.7h1.2V7.5h1.6V6.3H28.5z"/>
	</g>
</g>
<g>
	<path class="st6" d="M81.2,24.5L81,23.9h-1.1l-0.2,0.6h-0.6l1-3.3h0.9l1,3.3H81.2z M80.5,21.8L80,23.4h0.9L80.5,21.8z"/>
	<path class="st6" d="M84.5,22.3c0,0.2,0,0.3-0.1,0.5c-0.1,0.1-0.1,0.3-0.3,0.4c-0.1,0.1-0.3,0.2-0.4,0.2c-0.2,0.1-0.4,0.1-0.6,0.1
		h-0.3v1.1h-0.6v-3.3h1c0.2,0,0.4,0,0.6,0.1c0.2,0,0.3,0.1,0.4,0.2c0.1,0.1,0.2,0.2,0.3,0.3C84.5,22,84.5,22.1,84.5,22.3z
		 M83.9,22.3c0-0.1,0-0.2,0-0.2c0-0.1-0.1-0.1-0.1-0.2c-0.1-0.1-0.1-0.1-0.2-0.1c-0.1,0-0.2,0-0.3,0h-0.3V23h0.3c0.1,0,0.2,0,0.3,0
		c0.1,0,0.2-0.1,0.2-0.1c0.1-0.1,0.1-0.1,0.1-0.2C83.9,22.5,83.9,22.4,83.9,22.3z"/>
	<path class="st6" d="M85.1,21.7v-0.5h2.1v0.5h-0.7V24h0.7v0.5h-2.1V24h0.7v-2.3H85.1z"/>
	<path class="st6" d="M91,21.8v0.9h1.2v0.5H91v1.3h-0.6v-3.3h1.9v0.5H91z"/>
	<path class="st6" d="M95.4,22.9c0,0.3,0,0.6-0.1,0.8c-0.1,0.2-0.2,0.4-0.3,0.5c-0.1,0.1-0.3,0.2-0.4,0.3c-0.2,0.1-0.3,0.1-0.5,0.1
		c-0.4,0-0.8-0.1-1-0.4c-0.2-0.3-0.3-0.7-0.3-1.3c0-0.3,0-0.6,0.1-0.8c0.1-0.2,0.2-0.4,0.3-0.5c0.1-0.1,0.3-0.2,0.4-0.3
		c0.2-0.1,0.3-0.1,0.5-0.1c0.4,0,0.8,0.1,1,0.4C95.3,21.9,95.4,22.3,95.4,22.9z M94.8,22.9c0-0.4-0.1-0.7-0.2-0.9
		c-0.1-0.2-0.3-0.3-0.5-0.3c-0.1,0-0.2,0-0.3,0.1c-0.1,0-0.2,0.1-0.2,0.2s-0.1,0.2-0.1,0.4c0,0.1,0,0.3,0,0.5c0,0.4,0.1,0.7,0.2,0.9
		c0.1,0.2,0.3,0.3,0.5,0.3c0.1,0,0.2,0,0.3-0.1c0.1,0,0.2-0.1,0.2-0.2c0.1-0.1,0.1-0.2,0.1-0.4C94.8,23.2,94.8,23.1,94.8,22.9z"/>
	<path class="st6" d="M97.5,24.5l-0.5-1.1c0-0.1-0.1-0.2-0.2-0.2c-0.1-0.1-0.2-0.1-0.3-0.1h-0.1v1.4h-0.6v-3.3h1c0.2,0,0.3,0,0.5,0
		c0.1,0,0.3,0.1,0.4,0.2c0.1,0.1,0.2,0.2,0.2,0.3C98,21.8,98,22,98,22.1c0,0.1,0,0.2-0.1,0.3c0,0.1-0.1,0.2-0.1,0.2
		c-0.1,0.1-0.1,0.1-0.2,0.2c-0.1,0-0.2,0.1-0.3,0.1c0.1,0,0.2,0.1,0.2,0.1c0.1,0.1,0.1,0.2,0.2,0.3l0.5,1.1H97.5z M97.4,22.2
		c0-0.2-0.1-0.3-0.2-0.3c-0.1-0.1-0.3-0.1-0.5-0.1h-0.3v0.9h0.3c0.1,0,0.2,0,0.3,0c0.1,0,0.1,0,0.2-0.1c0.1,0,0.1-0.1,0.1-0.1
		C97.4,22.4,97.4,22.3,97.4,22.2z"/>
	<path class="st6" d="M103.3,22.3c0,0.2,0,0.3-0.1,0.5c-0.1,0.1-0.1,0.3-0.3,0.4c-0.1,0.1-0.3,0.2-0.4,0.2c-0.2,0.1-0.4,0.1-0.6,0.1
		h-0.3v1.1H101v-3.3h1c0.2,0,0.4,0,0.6,0.1c0.2,0,0.3,0.1,0.4,0.2c0.1,0.1,0.2,0.2,0.3,0.3C103.3,22,103.3,22.1,103.3,22.3z
		 M102.7,22.3c0-0.1,0-0.2,0-0.2c0-0.1-0.1-0.1-0.1-0.2c-0.1-0.1-0.1-0.1-0.2-0.1c-0.1,0-0.2,0-0.3,0h-0.3V23h0.3c0.1,0,0.2,0,0.3,0
		c0.1,0,0.2-0.1,0.2-0.1c0.1-0.1,0.1-0.1,0.1-0.2C102.6,22.5,102.7,22.4,102.7,22.3z"/>
	<path class="st6" d="M105.5,24.5v-1.4h-1.1v1.4h-0.6v-3.3h0.6v1.3h1.1v-1.3h0.6v3.3H105.5z"/>
	<path class="st6" d="M109,22.3c0,0.2,0,0.3-0.1,0.5c-0.1,0.1-0.1,0.3-0.3,0.4c-0.1,0.1-0.3,0.2-0.4,0.2c-0.2,0.1-0.4,0.1-0.6,0.1
		h-0.3v1.1h-0.6v-3.3h1c0.2,0,0.4,0,0.6,0.1c0.2,0,0.3,0.1,0.4,0.2c0.1,0.1,0.2,0.2,0.3,0.3C108.9,22,109,22.1,109,22.3z
		 M108.3,22.3c0-0.1,0-0.2,0-0.2c0-0.1-0.1-0.1-0.1-0.2c-0.1-0.1-0.1-0.1-0.2-0.1c-0.1,0-0.2,0-0.3,0h-0.3V23h0.3c0.1,0,0.2,0,0.3,0
		c0.1,0,0.2-0.1,0.2-0.1c0.1-0.1,0.1-0.1,0.1-0.2C108.3,22.5,108.3,22.4,108.3,22.3z"/>
</g>
</svg>
